<?xml version="1.0" encoding="utf-8"?>
<!-- Generator: Adobe Illustrator 26.0.2, SVG Export Plug-In . SVG Version: 6.00 Build 0)  -->
<svg version="1.1" id="Ebene_1" xmlns="http://www.w3.org/2000/svg" xmlns:xlink="http://www.w3.org/1999/xlink" x="0px" y="0px"
	 viewBox="0 0 595.28 841.89" style="enable-background:new 0 0 595.28 841.89;" xml:space="preserve">
<style type="text/css">
	.st0{fill:#0A0A0A;}
	.st1{fill:url(#SVGID_1_);}
	.st2{fill:url(#SVGID_00000147207763844559542280000000705966777167423897_);}
</style>
<path class="st0" d="M83.18,479.93c0-7.7,4.54-11.27,10.45-11.27c3.8,0,6.78,1.6,8.52,4.58c1.74-2.98,4.72-4.58,8.52-4.58
	c5.91,0,10.45,3.57,10.45,11.27v19.29h-5.87v-19.29c0-4.12-2.2-5.82-5.09-5.82s-5.09,1.74-5.09,5.82v19.29h-5.87v-19.29
	c0-4.08-2.2-5.82-5.09-5.82s-5.09,1.7-5.09,5.82v19.29h-5.87V479.93z"/>
<path class="st0" d="M133.43,481.68c0-8.02,4.58-13.01,13.05-13.01c8.48,0,13.15,4.99,13.15,13.01v17.55h-5.86v-8.98h-14.61v8.98
	h-5.73V481.68z M153.77,484.93v-3.25c0-4.81-2.38-7.56-7.33-7.56c-4.9,0-7.28,2.75-7.28,7.56v3.25H153.77z"/>
<path class="st0" d="M172.57,468.83h5.95v30.4h-5.95V468.83z"/>
<path class="st0" d="M191.77,468.83h14.55c5.76,0,8.78,3.3,8.78,7.9c0,3.07-1.44,5.44-3.95,6.69v0.09c3.35,1.07,5.35,3.86,5.35,7.48
	c0,4.74-3.07,8.23-8.97,8.23h-15.76V468.83z M205.57,481.14c2.46,0,3.63-1.49,3.63-3.39c0-1.95-0.93-3.39-3.67-3.39h-7.81v6.79
	H205.57z M206.5,493.74c2.79,0,3.9-1.63,3.9-3.62c0-2.05-1.39-3.67-3.86-3.67h-8.83v7.3H206.5z"/>
<path class="st0" d="M226.26,483.99c0-8.93,6.56-15.49,15.86-15.49s15.86,6.56,15.86,15.49s-6.56,15.49-15.86,15.49
	S226.26,492.93,226.26,483.99z M252.05,483.99c0-5.83-4.01-10.07-9.93-10.07s-9.93,4.24-9.93,10.07s4.01,10.12,9.93,10.12
	S252.05,489.83,252.05,483.99z"/>
<path class="st0" d="M270.29,468.83h12.74c7.72,0,11.11,4.23,11.11,10.04c0,4.79-2.28,8.09-6.37,9.44l7.48,10.92h-7.07l-6.46-10.27
	h-5.49v10.27h-5.95V468.83z M283.11,483.42c3.76,0,5.02-1.95,5.02-4.55c0-2.6-1.26-4.51-5.02-4.51h-6.88v9.06H283.11z"/>
<path class="st0" d="M305.66,481.17c0-7.7,4.6-12.51,12.92-12.51c8.32,0,12.92,4.81,12.92,12.51v18.05h-5.95v-18.05
	c0-4.44-2.32-7.06-6.97-7.06s-6.97,2.61-6.97,7.06v18.05h-5.95V481.17z"/>
<path class="st0" d="M343.97,488.14v-19.31h5.87v19.31c0,4.13,2.2,5.83,5.09,5.83c2.89,0,5.09-1.74,5.09-5.83v-19.31h5.87v19.31
	c0,4.08,2.2,5.83,5.09,5.83c2.89,0,5.09-1.7,5.09-5.83v-19.31h5.87v19.31c0,7.71-4.54,11.28-10.46,11.28
	c-3.81,0-6.79-1.61-8.53-4.59c-1.74,2.98-4.73,4.59-8.53,4.59C348.51,499.42,343.97,495.85,343.97,488.14z"/>
<path class="st0" d="M392.78,483.99c0-8.95,6.58-15.53,15.9-15.53c9.32,0,15.9,6.58,15.9,15.53c0,8.95-6.58,15.53-15.9,15.53
	C399.36,499.52,392.78,492.94,392.78,483.99z M418.63,483.99c0-5.85-4.02-10.1-9.96-10.1c-5.94,0-9.96,4.25-9.96,10.1
	c0,5.85,4.02,10.14,9.96,10.14C414.61,494.13,418.63,489.83,418.63,483.99z"/>
<path class="st0" d="M436.8,468.83h5.95v24.91h15.9v5.49H436.8V468.83z"/>
<path class="st0" d="M469.95,468.83h22.03v5.53h-16.08v6.69h13.39v5.39h-13.39v12.78h-5.95V468.83z"/>
<path class="st0" d="M503.41,468.83h22.03v5.53h-16.08v6.69h13.39v5.39h-13.39v12.78h-5.95V468.83z"/>
<g>
	<g>
		<linearGradient id="SVGID_1_" gradientUnits="userSpaceOnUse" x1="227.8045" y1="338.9174" x2="281.6816" y2="351.73">
			<stop  offset="0" style="stop-color:#FF2CA4"/>
			<stop  offset="0.2451" style="stop-color:#FF219D"/>
			<stop  offset="0.6806" style="stop-color:#FF028C"/>
			<stop  offset="0.708" style="stop-color:#FF008B"/>
		</linearGradient>
		<path class="st1" d="M282.9,326.14h0.01c0.09-16.8,8.54-31.61,21.4-40.52c-8-5.54-17.7-8.81-28.17-8.81
			c-27.3,0-49.43,22.06-49.57,49.33h-0.01v87.47h42.82v-86.58c0,0,0-0.42,0-0.64v0c0-3.73,3.03-6.76,6.76-6.76
			c3.73,0,6.75,3.02,6.76,6.74V326.14z"/>
	</g>
	
		<linearGradient id="SVGID_00000168108820273583317790000001117600707165807260_" gradientUnits="userSpaceOnUse" x1="286.9326" y1="345.2054" x2="383.2675" y2="345.2253">
		<stop  offset="0" style="stop-color:#37D4FF"/>
		<stop  offset="0.1433" style="stop-color:#31D9EC"/>
		<stop  offset="0.4326" style="stop-color:#22E4BC"/>
		<stop  offset="0.8378" style="stop-color:#0AF770"/>
		<stop  offset="1" style="stop-color:#00FF4F"/>
	</linearGradient>
	<path style="fill:url(#SVGID_00000168108820273583317790000001117600707165807260_);" d="M382.04,326.14
		c-0.14-27.26-22.27-49.33-49.57-49.33s-49.43,22.06-49.57,49.33h-0.01v87.47h42.82v-86.58c0,0,0-0.42,0-0.64v-0.02
		c0-2.62,1.44-5.12,3.85-6.14c4.93-2.08,9.67,1.48,9.67,6.15v0c0,0.22,0,0.64,0,0.64v86.58h42.82v-87.47H382.04z"/>
</g>
</svg>
