<svg xmlns="http://www.w3.org/2000/svg" xmlns:xlink="http://www.w3.org/1999/xlink" viewBox="0 0 1024 1024"><defs><style>.cls-1{fill:#1d184b;}.cls-2{fill:url(#linear-gradient);}.cls-3{fill:#ed2985;}</style><linearGradient id="linear-gradient" x1="121.98" y1="119.1" x2="269.57" y2="119.1" gradientUnits="userSpaceOnUse"><stop offset="0" stop-color="#0ad2ff"/><stop offset="1" stop-color="#3cfa50"/></linearGradient><symbol id="Logo" data-name="Logo" viewBox="0 0 392.05 254.17"><path class="cls-1" d="M4.83,121.85,85,73.42A10,10,0,0,1,100.15,82V92.86a10,10,0,0,1-4.72,8.5L60.2,123.23a10,10,0,0,0,.14,17.08l35,20.94a10,10,0,0,1,4.86,8.57v12.39a10,10,0,0,1-15.1,8.6L4.9,143.33a10,10,0,0,1-4.9-8.6V130.4A10,10,0,0,1,4.83,121.85Z"/><path class="cls-2" d="M122,117.68a85.93,85.93,0,0,1,5.58-30.5,85,85,0,0,1,16.37-26.93A80.55,80.55,0,0,1,170.16,40.9q15.42-7.23,34.88-7.23,23.27,0,40.23,10.2a65.91,65.91,0,0,1,19.89,18,9.94,9.94,0,0,1-2.51,13.91l-8.47,5.89a10,10,0,0,1-13.72-2.37,34.54,34.54,0,0,0-6.23-6.47A44.29,44.29,0,0,0,219.4,65a53.51,53.51,0,0,0-15.31-2.37q-12.33,0-21.47,5a46.58,46.58,0,0,0-15.19,13.05,58.91,58.91,0,0,0-9.14,18,67.78,67.78,0,0,0-3.08,20.17,64.51,64.51,0,0,0,3.56,21.24,58.52,58.52,0,0,0,10.08,18.28A48.12,48.12,0,0,0,184.52,171a43.63,43.63,0,0,0,20,4.63A50.47,50.47,0,0,0,220.23,173a45.2,45.2,0,0,0,15-8.3,38.4,38.4,0,0,0,6.59-7.08A10,10,0,0,1,255,154.8l9.67,5.7a10,10,0,0,1,3.17,14.27,53.87,53.87,0,0,1-11.39,12A81.76,81.76,0,0,1,231.27,200a89.33,89.33,0,0,1-27.65,4.51,72,72,0,0,1-32.87-7.48A84.48,84.48,0,0,1,145,177.13a93.86,93.86,0,0,1-17-28A86.1,86.1,0,0,1,122,117.68Z"/><path class="cls-1" d="M387.15,143.33,307,190.81a10,10,0,0,1-15.1-8.6V169.84a10,10,0,0,1,4.88-8.59l42.16-25.15a5,5,0,0,0,.07-8.55l-42.37-26.2a10,10,0,0,1-4.74-8.5V82a10,10,0,0,1,15.17-8.55l80.15,48.43a10,10,0,0,1,4.83,8.55v4.33A10,10,0,0,1,387.15,143.33Z"/><path class="cls-3" d="M225.36,6.58A10,10,0,0,1,234.76,0h10.38a10,10,0,0,1,9.4,13.42L243.77,43a72.74,72.74,0,0,0-28.46-8.81ZM205,62.64,140.13,240.75a10,10,0,0,0,9.4,13.42h10.38a10,10,0,0,0,9.4-6.58L233.2,72A43.83,43.83,0,0,0,219.4,65,53.63,53.63,0,0,0,205,62.64Z"/></symbol></defs><title>team_canvas_logo</title><g id="Layer_6" data-name="Layer 6"><use width="392.05" height="254.17" transform="translate(64.6 31.09) scale(2.29)" xlink:href="#Logo"/><path class="cls-1" d="M74.19,865.46a79.71,79.71,0,0,1,30.39-29.8A84.85,84.85,0,0,1,146.63,825q26.15,0,46.52,12.83A72.08,72.08,0,0,1,220,867.85a4.44,4.44,0,0,1-4,6.33H193.14a4.52,4.52,0,0,1-3.94-2.39,42.47,42.47,0,0,0-16.42-16.93q-11.31-6.36-26.15-6.36a57.24,57.24,0,0,0-29,7.3,50.83,50.83,0,0,0-19.9,21q-7.19,13.66-7.19,31.8t7.19,31.81a51.6,51.6,0,0,0,19.9,21.08,56.41,56.41,0,0,0,29,7.42q14.84,0,26.15-6.36A42.5,42.5,0,0,0,189.2,945.6a4.5,4.5,0,0,1,3.94-2.4h22.77a4.44,4.44,0,0,1,4,6.33,71.28,71.28,0,0,1-26.8,30q-20.37,12.72-46.52,12.72a84.58,84.58,0,0,1-42.17-10.72,79.89,79.89,0,0,1-30.27-29.8Q63,932.6,63,908.57T74.19,865.46Z"/><path class="cls-1" d="M253.22,890.67a59.22,59.22,0,0,1,53.13-31.8q15.3,0,26.73,6a60.11,60.11,0,0,1,10.9,7.27,4.45,4.45,0,0,0,7.36-3.36v-3.34a4.45,4.45,0,0,1,4.45-4.45H374a4.45,4.45,0,0,1,4.45,4.45V986.33a4.46,4.46,0,0,1-4.45,4.46H355.79a4.46,4.46,0,0,1-4.45-4.46v-3.68A4.45,4.45,0,0,0,344,979.3a59.55,59.55,0,0,1-11.24,7.48,60.2,60.2,0,0,1-57.48-2.47,60.94,60.94,0,0,1-22-24q-8.11-15.42-8.12-35T253.22,890.67Zm92.58,11.78a38.91,38.91,0,0,0-14.48-15.08A38,38,0,0,0,312,882.19a38.66,38.66,0,0,0-19.32,5.06,38.21,38.21,0,0,0-14.49,14.85q-5.54,9.76-5.53,23.2t5.53,23.56a39.1,39.1,0,0,0,14.61,15.43,37.46,37.46,0,0,0,19.2,5.3,37.88,37.88,0,0,0,19.32-5.19,38.61,38.61,0,0,0,14.48-15.19q5.54-10,5.54-23.44T345.8,902.45Z"/><path class="cls-1" d="M506.7,865.23a45.31,45.31,0,0,1,19,18.84q6.83,12.49,6.83,30.16v72.1a4.46,4.46,0,0,1-4.45,4.46H510.33a4.46,4.46,0,0,1-4.46-4.46v-68.1q0-17.43-8.71-26.74t-23.8-9.3q-15.08,0-23.91,9.3t-8.83,26.74v68.1a4.46,4.46,0,0,1-4.45,4.46H418.22a4.46,4.46,0,0,1-4.46-4.46V865.44a4.46,4.46,0,0,1,4.46-4.45h17.95a4.45,4.45,0,0,1,4.45,4.45h0a4.46,4.46,0,0,0,7.21,3.49,47.32,47.32,0,0,1,9.63-5.59,54,54,0,0,1,21.79-4.47A58.23,58.23,0,0,1,506.7,865.23Z"/><path class="cls-1" d="M621,954.65,652.54,864a4.45,4.45,0,0,1,4.2-3h18.87a4.46,4.46,0,0,1,4.17,6L633.7,987.92a4.45,4.45,0,0,1-4.16,2.87h-25.9a4.46,4.46,0,0,1-4.16-2.88L553.62,867a4.46,4.46,0,0,1,4.17-6h19.12a4.45,4.45,0,0,1,4.2,3l31.51,90.67A4.45,4.45,0,0,0,621,954.65Z"/><path class="cls-1" d="M701.51,890.67a59.19,59.19,0,0,1,53.12-31.8q15.32,0,26.74,6a60.46,60.46,0,0,1,10.9,7.27,4.45,4.45,0,0,0,7.36-3.36v-3.34a4.45,4.45,0,0,1,4.45-4.45h18.18a4.46,4.46,0,0,1,4.46,4.45V986.33a4.46,4.46,0,0,1-4.46,4.46H804.08a4.46,4.46,0,0,1-4.45-4.46v-3.68a4.45,4.45,0,0,0-7.37-3.35A59.87,59.87,0,0,1,781,986.78a60.2,60.2,0,0,1-57.48-2.47,60.94,60.94,0,0,1-22-24q-8.13-15.42-8.13-35T701.51,890.67Zm92.58,11.78a38.86,38.86,0,0,0-14.49-15.08,37.94,37.94,0,0,0-19.32-5.18A38.6,38.6,0,0,0,741,887.25a38.21,38.21,0,0,0-14.49,14.85q-5.54,9.76-5.53,23.2t5.53,23.56a39.1,39.1,0,0,0,14.61,15.43,37.45,37.45,0,0,0,19.19,5.3,37.85,37.85,0,0,0,19.32-5.19,38.57,38.57,0,0,0,14.49-15.19q5.53-10,5.54-23.44T794.09,902.45Z"/><path class="cls-1" d="M881.72,987.37a48.1,48.1,0,0,1-19.2-15.08,37.65,37.65,0,0,1-7-16.25,4.41,4.41,0,0,1,4.41-5.06h19.14a4.56,4.56,0,0,1,4.34,3.46,19.47,19.47,0,0,0,7.27,10.32q7.19,5.54,18,5.53,11.31,0,17.56-4.35t6.24-11.2c0-4.86-2.32-8.48-7-10.83s-12-4.95-22-7.77a211.07,211.07,0,0,1-23.79-7.78,41.69,41.69,0,0,1-15.9-11.54q-6.72-7.79-6.72-20.5a32,32,0,0,1,6.13-19q6.12-8.6,17.55-13.54t26.27-5q22.14,0,35.69,11.19,11.73,9.69,14,25.5a4.43,4.43,0,0,1-4.43,5H934.17a4.52,4.52,0,0,1-4.36-3.57,18.68,18.68,0,0,0-6.51-10.33q-6.36-5.17-17.2-5.18-10.59,0-16.25,4-7.44,5.26-5.09,15a4.46,4.46,0,0,0,.83,1.71,25.6,25.6,0,0,0,11.56,8.13q5.42,2,16,5.06a175.9,175.9,0,0,1,23.21,7.66A43.2,43.2,0,0,1,952,934.49q6.6,7.53,6.83,20a33.61,33.61,0,0,1-6.12,19.79A40.68,40.68,0,0,1,935.43,988q-11.19,4.95-26.26,4.95A65.43,65.43,0,0,1,881.72,987.37Z"/><path class="cls-3" d="M368.89,715.71v38.84q0,3.94,1.85,5.66t6.3,1.72H386V774H374.49q-9.8,0-15-4.59t-5.22-14.89V715.71H346V703.87h8.27V686.43h14.64v17.44H386v11.84Z"/><path class="cls-3" d="M463.11,744.36h-53.6a19.45,19.45,0,0,0,6.24,13.5A19.69,19.69,0,0,0,429.5,763q11.7,0,16.55-9.8h15.66A31.66,31.66,0,0,1,450.19,769q-8.34,6.18-20.69,6.17a35.75,35.75,0,0,1-18-4.52A32.12,32.12,0,0,1,399,757.92a38.86,38.86,0,0,1-4.52-19,39.76,39.76,0,0,1,4.4-19,30.9,30.9,0,0,1,12.35-12.67,36.73,36.73,0,0,1,18.27-4.45,35.64,35.64,0,0,1,17.69,4.33,30.58,30.58,0,0,1,12.1,12.16,36.66,36.66,0,0,1,4.33,18A45.31,45.31,0,0,1,463.11,744.36Zm-14.64-11.71a16.55,16.55,0,0,0-5.73-12.86A20.47,20.47,0,0,0,428.86,715,18.64,18.64,0,0,0,416,719.72a20,20,0,0,0-6.37,12.93Z"/><path class="cls-3" d="M477.43,719.92a32,32,0,0,1,28.71-17.19A30.65,30.65,0,0,1,520.59,706a29.31,29.31,0,0,1,9.87,8.09V703.87H545.1V774H530.46V763.59a28.68,28.68,0,0,1-10.06,8.27,32.56,32.56,0,0,1-31.06-1.33,33,33,0,0,1-11.91-13A39.93,39.93,0,0,1,473,738.63,38.79,38.79,0,0,1,477.43,719.92Zm50,6.36a21.14,21.14,0,0,0-7.83-8.15,20.58,20.58,0,0,0-10.44-2.8,20.88,20.88,0,0,0-10.44,2.74,20.63,20.63,0,0,0-7.83,8,25,25,0,0,0-3,12.54,26,26,0,0,0,3,12.73,21.06,21.06,0,0,0,7.89,8.34,20.27,20.27,0,0,0,10.38,2.87,20.48,20.48,0,0,0,10.44-2.8,21,21,0,0,0,7.83-8.21,25.85,25.85,0,0,0,3-12.67A25.48,25.48,0,0,0,527.47,726.28Z"/><path class="cls-3" d="M664,706.17a24.84,24.84,0,0,1,10.31,10.18q3.75,6.75,3.75,16.3V774H663.64V734.81q0-9.42-4.71-14.45t-12.86-5c-5.44,0-9.74,1.68-12.93,5s-4.77,8.17-4.77,14.45V774H614V734.81q0-9.42-4.71-14.45t-12.86-5q-8.14,0-12.92,5t-4.78,14.45V774H564.2V703.87h14.51v8a24.17,24.17,0,0,1,9-6.74,28.73,28.73,0,0,1,11.72-2.42,31.24,31.24,0,0,1,15,3.56,24.45,24.45,0,0,1,10.19,10.32,23.53,23.53,0,0,1,9.93-10.13,29.39,29.39,0,0,1,14.51-3.75A31.41,31.41,0,0,1,664,706.17Z"/></g></svg>